<?xml version="1.0" standalone="no"?>
<svg xmlns="http://www.w3.org/2000/svg" viewBox="0 0 178.993 36" width="178.993" height="36"><g fill="#FFFFFF" color="#FFFFFF" transform="translate(0 3.9999999999999982) scale(0.2800001)"><svg width="100.0" height="100.0" x="0.0" y="0.0" viewBox="0 0 100 100"><g><path fill="currentColor" d="M84.518,1.623c-8.551,0-15.84,7.077-15.436,16.153c-3.453,0.532-7.836,1.063-10.988,1.063   c-5.99,0-27.012-4.111-30.154-4.111c-5.475,0-15.157,2.087-15.157,2.087c10.178,9.94,29.775,28.755,29.775,28.753   c0.281,0.247,0.639,0.41,1.042,0.41c0.457,0,0.866-0.199,1.158-0.51c2.686-2.425,32.163-31.119,34.534-33.439   c0.979-0.947,1.443-1.027,2.203-1.027c0.602,0,1.164,0.215,1.627,0.623c0.516,0.451,0.818,1.065,0.854,1.725   c0.037,0.68-0.211,1.338-0.701,1.924c-0.143,0.123-31.938,31.219-35.486,34.301c-1.966,1.71-2.675,2.114-4.188,2.161   c-1.513-0.047-2.222-0.451-4.19-2.161C35.86,46.493,4.351,15.661,4.351,15.661c-1.301-1.261-2.62-1.889-3.698-0.939   c-1.053,0.926-0.731,2.164,0.245,3.23c0,0,35.676,37.602,38.709,41.391c1.248,1.555,1.376,1.883,1.317,3.432   c-0.055,1.55-0.884,28.354-0.884,28.354c-0.069,1.605-0.192,2.094-0.813,2.793c-0.665,0.654-2.982,0.957-4.561,1.277   c-3.377,0.682-12.59,2.258-12.59,2.258c-1.118,0.045-1.959,0.369-1.992,1.254c-0.033,0.861,0.658,1.273,1.549,1.289   c0,0,14.118-0.654,21.966-0.654c7.846,0,21.965,0.654,21.965,0.654c0.891-0.016,1.582-0.428,1.549-1.289   c-0.033-0.885-0.873-1.209-1.992-1.254c0,0-9.213-1.576-12.59-2.258c-1.578-0.32-3.896-0.623-4.562-1.277   c-0.621-0.699-0.742-1.188-0.812-2.793c0,0-0.829-26.804-0.884-28.354c-0.059-1.549,0.069-1.877,1.316-3.432   c1.924-2.404,16.98-18.41,27.734-29.795c2.572,1.906,5.748,3.042,9.193,3.042c8.553,0,15.482-6.935,15.482-15.486   C100,8.553,93.07,1.623,84.518,1.623z"></path></g></svg></g><path fill="#D42A2A" fill-rule="nonzero" d="M0 5.14L0 4.68L7.18 4.68Q10.51 4.68 12.18 5.58Q13.85 6.48 13.85 8.62L13.85 8.62Q13.85 11.90 9.89 12.55L9.89 12.55L9.89 12.60Q14.69 13.20 14.69 16.78L14.69 16.78Q14.69 19.39 12.72 20.44Q10.75 21.48 7.06 21.48L7.06 21.48L0 21.48L0 21.02L1.56 21.02L1.56 5.14L0 5.14ZM6.79 12.98L6.24 12.98L6.24 21.02L7.37 21.02Q8.69 21.02 9.22 20.11Q9.74 19.20 9.74 17.42L9.74 17.42L9.74 16.15Q9.74 14.57 9.10 13.78Q8.45 12.98 6.79 12.98L6.79 12.98ZM7.01 5.14L6.24 5.14L6.24 12.53L6.86 12.53Q8.11 12.53 8.60 11.77Q9.10 11.02 9.10 9.46L9.10 9.46L9.10 8.33Q9.10 6.55 8.66 5.84Q8.23 5.14 7.01 5.14L7.01 5.14ZM23.26 21.02L24.96 21.02L23.21 15.84L18.46 15.84L16.61 21.02L18.41 21.02L18.41 21.48L14.74 21.48L14.74 21.02L15.86 21.02L21.98 4.54L23.95 4.54L30 21.02L31.10 21.02L31.10 21.48L23.26 21.48L23.26 21.02ZM23.02 15.31L20.93 9.02L18.67 15.31L23.02 15.31ZM39.12 12.98L39.12 12.98L37.85 12.98L37.85 21.02L39.41 21.02L39.41 21.48L31.61 21.48L31.61 21.02L33.17 21.02L33.17 5.14L31.61 5.14L31.61 4.68L38.86 4.68Q41.98 4.68 43.28 5.00Q44.59 5.33 45.12 5.78L45.12 5.78Q46.27 6.72 46.27 8.76Q46.27 10.80 45.26 11.68Q44.26 12.55 42.19 12.72L42.19 12.72L42.19 12.79Q44.14 13.06 44.90 13.94Q45.67 14.83 45.67 16.92L45.67 16.92L45.67 18.19Q45.67 19.44 45.80 19.87Q45.94 20.30 46.37 20.30Q46.80 20.30 47.05 19.91Q47.30 19.51 47.52 18.24L47.52 18.24L47.93 18.29Q47.66 20.33 47.00 21.02Q46.34 21.72 44.38 21.72Q42.41 21.72 41.58 20.80Q40.75 19.87 40.75 17.33L40.75 17.33L40.75 15.58Q40.75 14.23 40.40 13.61Q40.06 12.98 39.12 12.98ZM38.64 5.14L37.85 5.14L37.85 12.53L38.62 12.53Q39.98 12.53 40.64 11.69Q41.30 10.85 41.30 8.95L41.30 8.95L41.30 8.26Q41.30 6.36 40.67 5.75Q40.03 5.14 38.64 5.14L38.64 5.14ZM53.26 5.21L53.26 4.68L65.74 4.68L65.98 9.43L65.54 9.43Q64.54 7.01 63.43 6.11Q62.33 5.21 60.19 5.21L60.19 5.21L59.35 5.21L59.35 12.62L60.17 12.62Q61.30 12.62 62.06 11.77Q62.83 10.92 63.14 9.48L63.14 9.48L63.50 9.48L63.50 16.58L63.10 16.58Q62.66 14.78 61.93 14.02Q61.20 13.25 59.93 13.25L59.93 13.25L59.35 13.25L59.35 20.95L60.26 20.95Q62.47 20.95 64.02 19.63Q65.57 18.31 66.14 16.25L66.14 16.25L66.62 16.25L66.43 21.48L53.26 21.48L53.26 20.95L54.67 20.95L54.67 5.21L53.26 5.21ZM75.29 21.22L75.29 21.22Q76.49 21.22 77.41 20.57Q78.34 19.92 78.34 18.61Q78.34 17.30 77.34 16.61Q76.34 15.91 74.51 15.40Q72.67 14.88 71.84 14.50Q71.02 14.11 70.27 13.49L70.27 13.49Q68.78 12.24 68.78 9.62L68.78 9.62Q68.78 7.49 70.31 5.95Q71.83 4.42 74.47 4.42L74.47 4.42Q75.74 4.42 77.12 4.79Q78.50 5.16 78.84 5.16Q79.18 5.16 79.44 4.68L79.44 4.68L79.70 4.68L79.87 9.53L79.49 9.53Q78.34 7.44 77.08 6.18Q75.82 4.92 74.34 4.92Q72.86 4.92 72.05 5.60Q71.23 6.29 71.23 7.43Q71.23 8.57 72.20 9.18Q73.18 9.79 74.59 10.18Q76.01 10.56 76.45 10.70Q76.90 10.85 77.56 11.10Q78.22 11.35 78.64 11.63Q79.06 11.90 79.52 12.32Q79.99 12.74 80.26 13.25L80.26 13.25Q80.90 14.40 80.90 15.98L80.90 15.98Q80.90 18.58 79.28 20.15Q77.66 21.72 75.02 21.72L75.02 21.72Q73.66 21.72 71.89 21.36Q70.13 21 69.94 21L69.94 21Q69.60 21 69.29 21.72L69.29 21.72L68.95 21.72L68.71 16.01L69.12 16.01Q70.18 18.10 71.82 19.66Q73.46 21.22 75.29 21.22ZM82.25 5.14L82.25 4.68L89.30 4.68Q92.93 4.68 94.70 5.72Q96.48 6.77 96.48 9.46L96.48 9.46Q96.48 12.43 94.32 13.56L94.32 13.56Q92.30 14.59 88.68 14.59L88.68 14.59L88.49 14.59L88.49 21.02L91.49 21.02L91.49 21.48L82.25 21.48L82.25 21.02L83.81 21.02L83.81 5.14L82.25 5.14ZM89.14 5.14L88.49 5.14L88.49 14.14L88.99 14.14Q90.43 14.14 90.98 13.15Q91.54 12.17 91.54 9.96L91.54 9.96L91.54 8.81Q91.54 6.77 91.02 5.95Q90.50 5.14 89.14 5.14L89.14 5.14ZM103.13 21.02L104.83 21.02L103.08 15.84L98.33 15.84L96.48 21.02L98.28 21.02L98.28 21.48L94.61 21.48L94.61 21.02L95.74 21.02L101.86 4.54L103.82 4.54L109.87 21.02L110.98 21.02L110.98 21.48L103.13 21.48L103.13 21.02ZM102.89 15.31L100.80 9.02L98.54 15.31L102.89 15.31ZM126.60 5.14L125.28 5.14L125.28 21.48L121.92 21.48L113.69 5.95L113.69 21.02L115.01 21.02L115.01 21.48L111.72 21.48L111.72 21.02L113.04 21.02L113.04 5.14L111.72 5.14L111.72 4.68L118.34 4.68L124.63 16.73L124.63 5.14L123.31 5.14L123.31 4.68L126.60 4.68L126.60 5.14ZM123.48 0.10Q123 1.99 122.46 2.71Q121.92 3.43 121.13 3.43Q120.34 3.43 119.06 2.95Q117.79 2.47 117.34 2.47L117.34 2.47Q116.42 2.47 116.02 3.46L116.02 3.46L115.73 3.36Q116.28 1.63 116.63 1.03Q116.98 0.43 117.36 0.24Q117.74 0.05 118.34 0.05Q118.94 0.05 120.16 0.53Q121.37 1.01 121.78 1.01L121.78 1.01Q122.83 1.01 123.17 0L123.17 0L123.48 0.10ZM135.14 21.02L136.85 21.02L135.10 15.84L130.34 15.84L128.50 21.02L130.30 21.02L130.30 21.48L126.62 21.48L126.62 21.02L127.75 21.02L133.87 4.54L135.84 4.54L141.89 21.02L142.99 21.02L142.99 21.48L135.14 21.48L135.14 21.02ZM134.90 15.31L132.82 9.02L130.56 15.31L134.90 15.31Z" transform="translate(36, 7.26)"></path></svg>